<svg xmlns="http://www.w3.org/2000/svg" viewBox="0 0 800 284.72"><title>Zeichenfläche 1</title><path d="M159.72,208.24c-7.79,3.6-26.67,8.39-50.94,8.39C33.26,216.63,0,169.29,0,115.64,0,44.32,52.14,8.07,112.38,8.07c23.37,0,42.25,4.49,50.64,9L152.53,59.61a98.47,98.47,0,0,0-37.45-7.2c-31.18,0-58.14,18.29-58.14,59.64,0,36.86,21.88,59.63,59,59.63,13.19,0,27.87-2.69,36.26-6Z" style="fill:#003764"/><path d="M192.37,159.39c12.29,6.3,32.36,12.59,52.44,12.59,18.58,0,27.57-6.29,27.57-16.48,0-9.89-9-15.58-31.76-23.37C206.46,120.14,184,101.26,184,71.3c0-35.67,30-63.23,80.91-63.23,24.27,0,41.36,4.49,54.84,10.48L308.34,61.7a105.68,105.68,0,0,0-44-9.58c-16.48,0-25.47,6-25.47,15,0,10.18,10.79,14.38,36.26,24,36.26,13.18,52.74,32.65,52.74,60.82,0,34.77-27.27,64.73-86.3,64.73-24.28,0-48-6.59-59.34-12.58Z" style="fill:#003764"/><path d="M353.84,159.39c12.29,6.3,32.37,12.59,52.44,12.59,18.58,0,27.57-6.29,27.57-16.48,0-9.89-9-15.58-31.76-23.37-34.16-12-56.64-30.87-56.64-60.83,0-35.67,30-63.23,80.91-63.23,24.28,0,41.35,4.49,54.84,10.48L469.81,61.7a105.68,105.68,0,0,0-44.05-9.58c-16.48,0-25.47,6-25.47,15,0,10.18,10.79,14.38,36.26,24,36.26,13.18,52.74,32.65,52.74,60.82,0,34.77-27.27,64.73-86.3,64.73-24.28,0-47.95-6.59-59.34-12.58Z" style="fill:#003764"/><path d="M784.76,33.67c5.41-3.51,13.77-10.61,5.5-16.36-2.63-1.84-6.56-2.6-9.48-.9-3.62,1.23-3.51,6.62-7.29,7.33-1.2-1.62,2.78-6.13,2.9-8.47.23-5.07-5.33-6.89-9.53-6.8-16.43.32-1.46,18.12-10.14,20.62-6.6,0-2.36-12.52-11.73-8.89-3.71,1.44-7.57,6.13-7,10.41,2.35,3.81,7,5.28,9.65,8.78,5.1,6.69,5.74,6.55,6.17,9.18,0,0-2.72,14.06-20.32,25.92-4.48,3-19.4,11.81-25.08,12.59-2.15.41-3.93-1.15-5.83-2.15C697,80.16,694,72.15,694.69,64.56c3-11.53,10.83-22.6,5.77-35.24-1.14-3.58-3.64-6.2-5.92-8.9l-18.36-16c-6.58-5-14.52-5.67-22.2-2.56C644.13,6,640,18.16,635.46,27.1c-3.4,6.77-5.16,19-1.09,25.74,4.48,8.12,11.45,11,14.69,20-.4,7.47-5.54,10.8-9.61,16.79-8,4.55-36.75-4.6-36.75-4.6-10.07-18.66-5.94-32.37-5.94-32.37,1.6-2.15,2.11-1.72,9.7-5.26,4-1.88,8.81-1,12.66-3.3,2.51-3.52,1.26-9.48-1.34-12.46-6.64-7.57-8.69,5.49-14.54,2.41-6.53-6.22,15-15.06.6-23-3.67-2-9.46-3-11.58,1.61-1,2.13.43,8-1.4,8.84-3-2.38-.4-7.09-3-9.86-1.79-2.87-5.64-4-8.81-3.6-10,1.25-5.89,11.42-2.73,17-5.85-2-9.76-9.4-15.75-2.19-4.64,5.55-1.45,10.36,4.07,13.22,5.31,2.78,9.75,7.18,11.19,14.17,0,0,3.09,48.17,11.22,54.32s17.91,7.4,26.91,9c3.94.69,9,3.34,8.84,8.51,1.2,7.34-2.69,15-7.31,20.29-3.37,2.71-6.88,7.29-11.71,5.64-7.41-5.06-10-17.79-13.92-25.3-1.92-4.29-5.46-7.38-11.51-7.68-10.64-.5-31.71,19.51-39.66,22.87.36-5.78,3.46-10.67,5.85-14.24,1.67-2.5,2.32-4.71,5.27-5.77,1.83-.65,3.79-1.23,4.93-3,2.93-4.65-.42-9.69-5.76-9.71-2,0-4.82.4-6.25,2-.83.94-1.68,3.36-3.4,2.43-.3-3.23,3-5.22,3.66-8.19.77-3.54-2.64-6.08-5.07-7.85-3.63-1.64-6.45.72-8.32,3.64-1,1.56-.38,6.65-2.59,6.72-.91-4,1.11-7.24-3.19-9.88-3.29-2-7.71,0-10,2.67-2.7,3.18-.55,6.73,2.12,9,2.5,2.21,2.24,2,1.46,5.2a3.33,3.33,0,0,1-3.38.61c-2.94-1.06-4.61-3.61-7.92-3.88-3.74-.29-5,3.78-4.65,6.91.83,8.58,11.89.23,10.83,10.56-.22,2.25-.51,10.77-.51,10.77a80.89,80.89,0,0,0-.19,13.18c2.28,7,5.75,11.1,10,13.1s9.16,1.94,14.41.75A79.12,79.12,0,0,0,552,157c5.32-2.57,10.45-5.4,14.94-7.53a7.41,7.41,0,0,1,8.81,1.64s18.32,17.68,15.24,25.23c0,0-2.41,10.65-26.42,32.28-49.51,44.64-122.45,35.4-182.94,47-6.4,1.13-12.72,2.32-19,3.65a162.44,162.44,0,0,0-17.61,5.53,122.74,122.74,0,0,0-16,7.15,110.76,110.76,0,0,0-15.15,9.78l-1.5,1A99,99,0,0,1,327,274.94a103.51,103.51,0,0,1,15.38-5,135.67,135.67,0,0,1,18.42-3.35C400.2,262,477.53,267.3,533.89,254c43.06-10.1,88.39-48.5,88.39-48.5,7-4.21,27.24,11.22,27.24,11.22a7.41,7.41,0,0,1,3,8.47c-1.42,4.76-3.43,10.25-5.17,15.92a78.57,78.57,0,0,0-3.65,16.79c-.39,5.35.31,10.24,2.91,14.12s7.17,6.68,14.47,7.83a80.92,80.92,0,0,0,13-2.13s8.39-1.59,10.56-2.16c10.07-2.6,3.49,9.61,12.08,9.11,3.15-.18,7-2,6.13-5.63-.76-3.23-3.54-4.5-5-7.24a3.25,3.25,0,0,1,.08-3.41c3-1.27,2.79-1.52,5.36.64s6.51,3.89,9.25.71c2.29-2.64,3.62-7.34,1.14-10.26-3.26-3.86-6.17-1.38-10.25-1.66-.28-2.2,4.85-2.37,6.24-3.6,2.63-2.29,4.5-5.4,2.36-8.78-2.14-2.11-5.16-5.11-8.54-3.81-2.82,1.08-4.31,4.65-7.54,4.85-1.19-1.55,1.07-2.74,1.88-3.71,1.42-1.66,1.4-4.5,1.08-6.5-.83-5.28-6.32-7.81-10.45-4.21-1.53,1.39-1.81,3.4-2.19,5.3-.63,3.09-2.69,4.06-4.91,6.09-3.16,2.9-7.55,6.71-13.17,8,2.11-8.38,18.68-32.21,16.57-42.68-1.19-5.92-4.79-9-9.3-10.23-8-2.74-21.8-6.35-22.25-10.56-2.39-4.53,43.19-19,51.61-67.48,0,0,41.54-20.52,52.86-36.78l15.88-27.49C778,50.67,784,48.86,790,48.86c6.21,0,11.29-2.76,9.75-9.81-2-9.19-8.84-4.46-15-5.38ZM648.68,54.09c-5.1.92-8.52-2.55-10.18-5.76-2.31-4.47,1.18-14.89,4.48-12.28,5.47,4.29,6.85,17.83,5.7,18Zm39.66-7.21c-1.19.15-4-13.26-.1-19.06,2.37-3.52,8.93,5.4,8.1,10.41-.6,3.57-2.85,8-8,8.65" style="fill:#c9cbce"/></svg>